<?xml version="1.0" standalone="no"?>
<!DOCTYPE svg PUBLIC "-//W3C//DTD SVG 20010904//EN"
 "http://www.w3.org/TR/2001/REC-SVG-20010904/DTD/svg10.dtd">
<svg version="1.0" xmlns="http://www.w3.org/2000/svg"
 width="900.000000pt" height="900.000000pt" viewBox="0 0 900.000000 900.000000"
 preserveAspectRatio="xMidYMid meet">

<g transform="translate(0.000000,900.000000) scale(0.100000,-0.100000)"
fill="#000000" stroke="none">
<path d="M3870 8001 c-14 -4 -39 -15 -55 -24 -17 -9 -377 -364 -802 -789
l-772 -773 -17 -60 c-45 -159 59 -356 234 -442 70 -35 83 -38 161 -38 63 0 95
5 119 18 18 10 373 360 790 778 842 845 816 815 816 943 0 59 -5 83 -31 139
-67 142 -210 246 -350 253 -37 2 -79 0 -93 -5z"/>
<path d="M3742 6467 l-742 -742 340 -340 340 -340 -1669 -1669 c-1887 -1887
-1724 -1709 -1725 -1881 -1 -81 2 -97 31 -157 39 -82 100 -145 179 -184 53
-26 69 -29 159 -29 89 0 106 3 156 27 47 24 304 277 1723 1698 917 918 1671
1670 1674 1670 4 0 172 -165 374 -367 l368 -368 741 741 741 741 -968 966
c-533 531 -971 968 -974 971 -3 3 -340 -329 -748 -737z"/>
<path d="M6720 5108 c-50 -16 -1570 -1532 -1602 -1598 -29 -62 -29 -174 1
-250 42 -110 141 -209 251 -252 79 -30 180 -30 242 0 67 33 1553 1532 1586
1600 19 39 22 60 20 127 -4 107 -43 190 -128 268 -87 81 -156 112 -255 114
-44 1 -96 -3 -115 -9z"/>
<path d="M3900 1916 l0 -194 -182 -4 c-167 -3 -187 -6 -226 -26 -219 -116
-256 -458 -67 -630 33 -31 69 -53 97 -61 33 -9 628 -11 2508 -9 l2465 3 40 22
c52 27 115 95 144 156 90 185 19 429 -151 519 -39 20 -59 23 -225 26 l-183 4
0 194 0 194 -2110 0 -2110 0 0 -194z"/>
</g>
</svg>
